/* XPM */
static char * XFACE[] = {
	"60 20 8 1",
	"a c #ffffff",
	"n c #000000",
	"r c #ff0000",
	"v c #00ff00",
	"b c #0000ff",
	"g c #ffff00",
	"t c #00ffff",
	"m c #ff00ff",
	"aaaaaaaaaaaaaaaaaaaaaaaaaaaaaaaaaaaaaaaaaaaaaaaaaaaaaaaaaaaa",
	"annnanaanannnnannnnannnnanaaannrrvvggbbmmttaaaaaaaaaaaaaaaaa",
	"anaaanaananaananaananaananaaannrrvvggbbmmttaaaaaaaaaaaaaaaaa",
	"anaaannnnanaanannnnannnnanaaaaaaaaaaaaaaaaaaaaaaaaaaaaaaaaaa",
	"anaaanaananaanananaanaanaaaaanananananananaaaaaaaaaaaaaaaaaa",
	"annnanaanannnnanaananaananaaaanananananananaaaaaaaaaaaaaaaaa",
	"aaaaaaaaaaaaaaaaaaaaaaaaaaaaaaaaaaaaaaaaaaaaaaaaaaaaaaaaaaaa",
	"atttttttttttttttaaaaaaaaaaaaaaaaaaaaaaaaaaaaaaaaaaaaaaaaaaaa",
	"atttttttttttttgtaaaaaaaaaaaaaaaaaaaaaaaaaaaaaaaaaaaaaaaaaaaa",
	"atttttttttttttttaaaaaaaaaaaaaaaaaaaaaaaaaaaaaaaaaaaaaaaaaaaa",
	"avvvvvvvvvvvvttvaaaaaaaaaaaaaaaaaaaaaaaaaaaaaaaaaaaaaaaaaaaa",
	"avvvvvvvvvvvvvvvaaaaaaaaaaaaaaaaaaaaaaaaaaaaaaaaaaaaaaaaaaaa",
	"aaaaaaaaaaaaaaaaaaaaaaaaaaaaaaaaaaaaaaaaaaaaaaaaaaaaaaaaaaaa",
	"aaaaaaaaaaaaaaaaaaaaaaaaaaaaaaaaaaaaaaaaaaaaaaaaaaaaaaaaaaaa",
	"aaaaaaaaaaaaaaaaaaaaaaaaaaaaaaaaaaaaaaaaaaaaaaaaaaaaaaaaaaaa",
	"aaaaaaaaaaaaaaaaaaaaaaaaaaaaaaaaaaaaaaaaaaaaaaaaaaaaaaaaaaaa",
	"aaaaaaaaaaaaaaaaaaaaaaaaaaaaaaaaaaaaaaaaaaaaaaaaaaaaaaaaaaaa",
	"aaaaaaaaaaaaaaaaaaaaaaaaaaaaaaaaaaaaaaaaaaaaaaaaaaaaaaaaaaaa",
	"aaaaaaaaaaaaaaaaaaaaaaaaaaaaaaaaaaaaaaaaaaaaaaaaaaaaaaaaaaaa",
	"aaaaaaaaaaaaaaaaaaaaaaaaaaaaaaaaaaaaaaaaaaaaaaaaaaaaaaaaaaaa",
}
